/* XPM */
static char *_819_68ebabec8b1d82c74da0ce82b9fe9463bc1e3aea4ca41649288c0ba0a6e32647[] = {
/* columns rows colors chars-per-pixel */
"32 32 99 2 ",
"   c #312515",
".  c #332515",
"X  c #312416",
"o  c #332516",
"O  c #342515",
"+  c #342615",
"@  c #342616",
"#  c #342617",
"$  c #352617",
"%  c #362616",
"&  c #362716",
"*  c #372716",
"=  c #362617",
"-  c #362717",
";  c #372717",
":  c #382716",
">  c #372816",
",  c #372817",
"<  c #382816",
"1  c #392816",
"2  c #382916",
"3  c #382817",
"4  c #392817",
"5  c #382917",
"6  c #392917",
"7  c #3A2917",
"8  c #392A17",
"9  c #3A2A17",
"0  c #3B2A17",
"q  c #3D2B17",
"w  c #392918",
"e  c #3A2918",
"r  c #3A2A18",
"t  c #3B2A18",
"y  c #3B2B18",
"u  c #3B2A19",
"i  c #3B2B19",
"p  c #3C2A18",
"a  c #3C2B18",
"s  c #3D2B18",
"d  c #3C2B19",
"f  c #3D2B19",
"g  c #3D2C18",
"h  c #3C2C19",
"j  c #3D2C19",
"k  c #3E2C18",
"l  c #3E2D18",
"z  c #3E2C19",
"x  c #3F2C19",
"c  c #3E2D19",
"v  c #3F2D19",
"b  c #3F2E19",
"n  c #3E2C1A",
"m  c #3E2D1A",
"M  c #3F2D1A",
"N  c #3F2E1A",
"B  c #402D19",
"V  c #402E19",
"C  c #412E19",
"Z  c #412F19",
"A  c #422E19",
"S  c #422F19",
"D  c #402D1A",
"F  c #402E1A",
"G  c #412E1A",
"H  c #412F1A",
"J  c #412E1B",
"K  c #422E1A",
"L  c #422F1A",
"P  c #432F1A",
"I  c #422F1B",
"U  c #42301A",
"Y  c #43301A",
"T  c #43301B",
"R  c #44301A",
"E  c #44301B",
"W  c #45301B",
"Q  c #44311B",
"!  c #45311B",
"~  c #46311B",
"^  c #46321B",
"/  c #47321B",
"(  c #45311C",
")  c #46321C",
"_  c #47321C",
"`  c #47331C",
"'  c #46341E",
"]  c #48331C",
"[  c #49341D",
"{  c #433424",
"}  c #4C3720",
"|  c #4C3821",
" . c #4B3B2A",
".. c #513C25",
"X. c #55422D",
"o. c #50483C",
"O. c #71604F",
"+. c #877A69",
"@. c #95918C",
/* pixels */
"[ [ [ [ [ [ ] ) ( ! T T T T T T T T T T ) [ [ [ [ [ [ [ [ [ [ [ ",
"` ^ ` ( E I I T Q ! ) _ ` ] ] ] ] ] ` ` ] [ [ [ [ [ [ [ [ [ [ [ ",
"I j I E ) ` [ [ [ ` Q n ( [ [ [ [ [ [ [ [ [ [ [ [ ] I Q ] [ [ [ ",
"[ ] [ [ [ [ [ ` T I S 7 t M M F G G L E Q ( ) ` ] [ ) E T Q ] [ ",
"[ [ [ [ [ _ T H E ] ] ! Y S C L V G T ) ! Q T T I T ) [ ] T I ! ",
"[ [ [ [ [ _ T H T ) ` ] [ ) I I I I I T ) [ [ [ ] _ ` [ [ [ ) T ",
"[ [ [ [ [ [ [ ] Q I I I I [ [ [ [ ] ] ) ` [ [ [ [ [ [ [ [ [ [ ] ",
"G - = $ $ # - t c c c v v F F F F f a a s f j c q 9 9 9 0 t p > ",
"E L E ^ / ~ S G I T T T I I I I T M v D b v M z * O : t t w , 1 ",
"[ [ [ [ [ ( ( [ [ [ [ [ [ ] ] ] ) ) ) ! E T T E ! E E ( ) ) ) ) ",
"[ / { ' ! W _ ] [ ] ( T ( [ [ [ [ [ [ [ [ [ [ [ [ [ ( Q Q ] [ [ ",
"[ A @.o.e z j z L I T ! Q [ [ [ ] ] [ ] U T Q ) ` [ ) ( T I ] [ ",
"[ ]  .0 g ` ) _ ! _ [ [ ] _ ) D B G F H Y ) ! I H H ] [ ] Q H ] ",
"[ [ ^ J ^ [ [ [ [ [ ] T H T T G G T [ [ [ [ [ [ ] I ) [ [ [ / ] ",
"Y K L W ^ ] [ [ [ [ Q T ] [ [ [ _ ) [ [ [ [ [ T H H ` ` Z C g v ",
"%   . = & 8 8 t p p p a f j j f s a t t t 3 ; o @ - & o X - o $ ",
"_ ] [ ] ] [ ` ) ) ) ( Q E E E E Q ( ) ) ! T P T E T Y ! [ [ | ] ",
"T E v y j [ [ [ [ [ [ [ ] ! Y E E ~ / ] ] ) ) ) ) ] [ [ X.+.O.[ ",
"( P z r L [ [ [ ] ) T I j j h z j d d a s m v V F F H E ] ..} [ ",
"M y j ! [ [ ) I I T Q _ ] ] [ [ [ [ ] ! ! a i r y r u z Y ` [ [ ",
"F ! [ [ ` T I Q ] [ [ [ [ [ [ [ [ [ [ [ [ ] [ [ ] E d a l f ! ` ",
"[ [ _ T H E ] [ [ [ [ [ [ [ [ [ [ [ [ [ [ [ [ [ [ [ ] L ! R E ) ",
"I I H T ] [ [ [ [ [ [ [ [ [ [ [ [ [ [ [ [ [ [ [ [ [ [ [ [ ] ` ) ",
"^ E Y E T T E s j j f s s p t t t r t t t t s z v ] ! E H F G i ",
"5 p s j j s p p t t t p p a f j c c z j j j p r 8 6 t r s F 0 , ",
"[ [ [ ` I I I I I I ) [ [ [ [ [ [ [ [ ` ` [ [ [ ] ] ] I H E / ] ",
"[ [ ` H Q ] [ ] ] [ [ [ [ [ ] ` ` ` ] ( I T ] [ [ [ [ [ ] T ) [ ",
"[ / d I [ ] z k x V v c G N F L T G v / ] T I T ( _ ] [ [ [ [ [ ",
"[ Y N H ] ( 6 + < z L L L H T I I H g I ] [ ] ( T I H Q ] [ [ [ ",
"[ _ ( Q T ] ( 2 4 D ] [ [ [ [ [ ] _ ` I ` [ [ [ [ ) K T I ) [ [ ",
"[ [ [ [ E I _ ] Y L I E ` [ [ [ [ [ [ _ ] [ ` Q I I ) [ ) I ` [ ",
"[ [ [ [ ] Q E [ [ [ ` ) ] [ [ [ [ [ [ [ _ T I Q ` [ [ [ [ Q T [ "
};
